<?xml version="1.0" encoding="UTF-8"?>
<svg width="32" height="32" viewBox="0 0 32 32" fill="none" xmlns="http://www.w3.org/2000/svg">
  <!-- Background with gradient -->
  <rect width="32" height="32" rx="6" fill="url(#gradient)"/>
  
  <!-- Plate -->
  <circle cx="16" cy="16" r="10" fill="none" stroke="white" stroke-width="2"/>
  <circle cx="16" cy="16" r="7" fill="none" stroke="white" stroke-width="1"/>
  
  <!-- Fork -->
  <path d="M11 6 L11 12 M9.5 6 L9.5 10 M12.5 6 L12.5 10" stroke="white" stroke-width="1.5" stroke-linecap="round"/>
  
  <!-- Knife -->
  <path d="M21 6 L21 12 M20 12 L22 12" stroke="white" stroke-width="1.5" stroke-linecap="round"/>
  
  <!-- Letter D in center -->
  <path d="M14 20 L14 26 L17 26 C18.5 26 19.5 25 19.5 23 C19.5 21 18.5 20 17 20 L14 20 Z M15.5 21.5 L16.5 21.5 C17 21.5 17.5 22 17.5 23 C17.5 24 17 24.5 16.5 24.5 L15.5 24.5 L15.5 21.5 Z" fill="white"/>
  
  <!-- Gradient definition -->
  <defs>
    <linearGradient id="gradient" x1="0%" y1="0%" x2="100%" y2="100%">
      <stop offset="0%" style="stop-color:#1e293b;stop-opacity:1" />
      <stop offset="50%" style="stop-color:#334155;stop-opacity:1" />
      <stop offset="100%" style="stop-color:#475569;stop-opacity:1" />
    </linearGradient>
  </defs>
</svg>
