<?xml version="1.0" encoding="UTF-8"?>
<svg version="1.1" xmlns="http://www.w3.org/2000/svg" width="512" height="512">
<path d="M0 0 C1.03833984 -0.03287109 2.07667969 -0.06574219 3.14648438 -0.09960938 C11.49258376 -0.15716868 18.21521005 1.65965503 24.45751953 7.4152832 C29.21161327 12.44716314 32.3125 17.36357201 32.3125 24.4375 C40.2325 24.4375 48.1525 24.4375 56.3125 24.4375 C56.6425 22.1275 56.9725 19.8175 57.3125 17.4375 C60.68213019 10.15023748 66.33462637 4.7226518 73.60253906 1.38623047 C78.30203172 -0.25901534 83.06477512 0.02706705 88 0 C89.03833984 -0.03287109 90.07667969 -0.06574219 91.14648438 -0.09960938 C99.49258376 -0.15716868 106.21521005 1.65965503 112.45751953 7.4152832 C117.21161327 12.44716314 120.3125 17.36357201 120.3125 24.4375 C128.2325 24.4375 136.1525 24.4375 144.3125 24.4375 C144.6425 22.1275 144.9725 19.8175 145.3125 17.4375 C148.68213019 10.15023748 154.33462637 4.7226518 161.60253906 1.38623047 C166.30203172 -0.25901534 171.06477512 0.02706705 176 0 C177.03833984 -0.03287109 178.07667969 -0.06574219 179.14648438 -0.09960938 C187.49258376 -0.15716868 194.21521005 1.65965503 200.45751953 7.4152832 C205.21161327 12.44716314 208.3125 17.36357201 208.3125 24.4375 C216.2325 24.4375 224.1525 24.4375 232.3125 24.4375 C232.6425 22.1275 232.9725 19.8175 233.3125 17.4375 C236.68213019 10.15023748 242.33462637 4.7226518 249.60253906 1.38623047 C254.30203172 -0.25901534 259.06477512 0.02706705 264 0 C265.03833984 -0.03287109 266.07667969 -0.06574219 267.14648438 -0.09960938 C275.49258376 -0.15716868 282.21521005 1.65965503 288.45751953 7.4152832 C293.21161327 12.44716314 296.3125 17.36357201 296.3125 24.4375 C304.2325 24.4375 312.1525 24.4375 320.3125 24.4375 C320.6425 22.1275 320.9725 19.8175 321.3125 17.4375 C324.68213019 10.15023748 330.33462637 4.7226518 337.60253906 1.38623047 C342.30203172 -0.25901534 347.06477512 0.02706705 352 0 C353.03833984 -0.03287109 354.07667969 -0.06574219 355.14648438 -0.09960938 C363.49258376 -0.15716868 370.21521005 1.65965503 376.45751953 7.4152832 C381.21161327 12.44716314 384.3125 17.36357201 384.3125 24.4375 C384.88170166 24.41655273 385.45090332 24.39560547 386.03735352 24.37402344 C388.64971816 24.29019006 391.26179884 24.23863182 393.875 24.1875 C394.77025391 24.15398438 395.66550781 24.12046875 396.58789062 24.0859375 C402.75649763 23.99555498 406.27141853 24.82921613 411.3125 28.4375 C414.88616967 32.29330148 416.43833128 35.24552798 416.43554783 40.49234295 C416.43753888 41.32039745 416.43952993 42.14845195 416.44158131 43.00159901 C416.43866847 43.91112429 416.43575563 44.82064956 416.43275452 45.75773621 C416.43403615 47.20715865 416.43403615 47.20715865 416.43534368 48.68586236 C416.43699658 51.93797306 416.43148018 55.19003269 416.42602539 58.44213867 C416.42574345 60.76767475 416.42590138 63.09321092 416.4264679 65.41874695 C416.42675561 71.74482158 416.42086306 78.07087738 416.41389394 84.39694762 C416.40828766 90.33445777 416.40727159 96.27196717 416.40624207 102.20947961 C416.4040527 113.97095546 416.39739572 125.73242439 416.38793945 137.49389648 C416.37876237 148.9200029 416.37168298 160.34610744 416.36743164 171.7722168 C416.36703756 172.82843098 416.36703756 172.82843098 416.36663551 173.90598281 C416.36533048 177.43841172 416.36406677 180.97084063 416.36282361 184.50326955 C416.35245457 213.81468417 416.33476511 243.12609201 416.3125 272.4375 C413.6725 272.4375 411.0325 272.4375 408.3125 272.4375 C408.3125 277.7175 408.3125 282.9975 408.3125 288.4375 C410.9525 288.4375 413.5925 288.4375 416.3125 288.4375 C416.40595077 311.78565121 416.47648291 335.13377157 416.51974869 358.48207188 C416.5403719 369.32315384 416.56848801 380.16411959 416.61425781 391.00512695 C416.65413281 400.45440163 416.67993456 409.90359213 416.68885398 419.35294861 C416.69406758 424.3561129 416.70631659 429.35903639 416.73542023 434.36212349 C416.76259971 439.07266736 416.77093984 443.78287156 416.76493073 448.4934864 C416.76602983 450.22083889 416.77396865 451.94820291 416.7893219 453.67548752 C416.80929006 456.03814691 416.80441516 458.39953203 416.79351807 460.76222229 C416.80516943 461.44220309 416.8168208 462.1221839 416.82882524 462.82277018 C416.76260907 468.15176569 415.21334048 471.12220036 412.3125 475.4375 C406.88049661 480.47203973 402.43183124 480.58141762 395.29597473 480.55775452 C394.36236152 480.55860894 393.42874831 480.55946337 392.46684378 480.56034368 C389.3252887 480.56199633 386.18378652 480.5564806 383.04223633 480.55102539 C380.79551698 480.55074345 378.54879754 480.55090139 376.30207825 480.5514679 C370.19087252 480.55175559 364.0796863 480.54586338 357.96848512 480.53889394 C351.58630614 480.53265574 345.20412675 480.53205623 338.82194519 480.53086853 C328.10598345 480.52811048 317.39003027 480.52185818 306.67407227 480.51293945 C295.63598669 480.50376217 284.59790307 480.49668288 273.55981445 480.49243164 C272.87956763 480.49216892 272.19932081 480.49190619 271.49846045 480.49163551 C268.08590412 480.49033048 264.67334777 480.48906677 261.26079142 480.48782361 C232.94468934 480.47745481 204.62859505 480.45976555 176.3125 480.4375 C176.3125 477.7975 176.3125 475.1575 176.3125 472.4375 C171.0325 472.4375 165.7525 472.4375 160.3125 472.4375 C160.3125 475.0775 160.3125 477.7175 160.3125 480.4375 C132.79206176 480.53092507 105.27164728 480.60147034 77.75108242 480.64474869 C64.97291705 480.66537733 52.19485019 480.69350389 39.41674805 480.73925781 C28.27986669 480.7791161 17.14305666 480.80493061 6.00610596 480.81385398 C0.10869616 480.81907038 -5.78850954 480.83133747 -11.68585396 480.86042023 C-17.23685873 480.88757318 -22.78757534 480.89594512 -28.33864021 480.88993073 C-30.37560085 480.891031 -32.41257114 480.89898544 -34.44947433 480.9143219 C-37.23246236 480.93424773 -40.01436496 480.92942958 -42.79737854 480.91851807 C-43.60186969 480.93016943 -44.40636084 480.9418208 -45.23523051 480.95382524 C-50.83384386 480.89456497 -54.06277793 479.62266255 -58.6875 476.4375 C-62.6253887 472.18872535 -63.81293534 469.10599898 -63.81054783 463.38314533 C-63.81253888 462.33215351 -63.81452993 461.2811617 -63.81658131 460.19832164 C-63.81366847 459.03977568 -63.81075563 457.88122971 -63.80775452 456.68757629 C-63.80860894 455.45994731 -63.80946337 454.23231833 -63.81034368 452.96748847 C-63.81170902 449.5537731 -63.80857229 446.14011471 -63.80356562 442.72640622 C-63.79925614 439.04748797 -63.8007079 435.36857155 -63.8014679 431.68965149 C-63.80199281 425.31360772 -63.79884936 418.93757417 -63.79323006 412.56153297 C-63.78511072 403.34279342 -63.78249939 394.12405882 -63.78124207 384.90531608 C-63.77905223 369.94932575 -63.77239399 354.99334088 -63.76293945 340.03735352 C-63.75376357 325.50708036 -63.7466836 310.97680867 -63.74243164 296.4465332 C-63.74216892 295.5512227 -63.74190619 294.6559122 -63.74163551 293.73347107 C-63.74033049 289.24206161 -63.73906678 284.75065214 -63.73782361 280.25924265 C-63.72745312 242.98532459 -63.70983666 205.71141272 -63.6875 168.4375 C-61.0475 168.4375 -58.4075 168.4375 -55.6875 168.4375 C-55.6875 163.1575 -55.6875 157.8775 -55.6875 152.4375 C-58.3275 152.4375 -60.9675 152.4375 -63.6875 152.4375 C-63.78104503 137.43394222 -63.85152893 122.43040709 -63.89474869 107.42661953 C-63.91535206 100.45968805 -63.94342968 93.49293803 -63.98925781 86.52612305 C-64.0334663 79.80230783 -64.05664041 73.07872004 -64.06700897 66.35475349 C-64.07439775 63.78991797 -64.08882622 61.22509271 -64.11042023 58.66033745 C-64.13947128 55.06687024 -64.14345511 51.47418105 -64.14160156 47.88061523 C-64.15598267 46.8210965 -64.17036377 45.76157776 -64.18518066 44.66995239 C-64.14997162 38.35853698 -63.42488817 34.58000679 -59.6875 29.4375 C-55.58478463 25.63498331 -52.56720781 24.30450823 -47.01953125 24.33984375 C-46.12685547 24.34306641 -45.23417969 24.34628906 -44.31445312 24.34960938 C-42.92129883 24.36217773 -42.92129883 24.36217773 -41.5 24.375 C-40.55962891 24.37951172 -39.61925781 24.38402344 -38.65039062 24.38867188 C-36.32936288 24.40045374 -34.00846356 24.41690442 -31.6875 24.4375 C-31.57535156 23.37660156 -31.46320312 22.31570312 -31.34765625 21.22265625 C-29.98090716 13.38608901 -25.02362044 8.15729197 -18.71484375 3.62890625 C-12.55793047 0.01068168 -6.97745704 0.03826759 0 0 Z " fill="#FEF2F8" transform="translate(79.6875,15.5625)"/>
<path d="M0 0 C2.12116258 1.67719832 4.05486504 3.43430396 5.84765625 5.4609375 C8.94441697 4.0577178 11.26922991 2.35084334 13.84765625 0.1484375 C23.35671755 -7.26645858 32.84356047 -9.99040515 44.84765625 -8.5390625 C55.6995736 -6.19588614 65.60225781 -0.93296758 71.84765625 8.4609375 C77.84765625 19.08162716 77.84765625 19.08162716 77.84765625 23.4609375 C78.56824219 23.40292969 79.28882813 23.34492188 80.03125 23.28515625 C99.47610977 22.46814534 118.5425231 27.93066869 135.84765625 36.4609375 C136.91242188 36.97785156 137.9771875 37.49476563 139.07421875 38.02734375 C151.85139353 44.63188339 162.97059524 54.07736054 172.84765625 64.4609375 C173.81058594 65.43160156 173.81058594 65.43160156 174.79296875 66.421875 C197.09782807 89.81477624 207.56942669 122.18168705 206.96875 154.08203125 C206.93041215 155.54172131 206.89016163 157.00136286 206.84765625 158.4609375 C206.81800781 159.66878906 206.78835938 160.87664062 206.7578125 162.12109375 C205.24945837 194.16442172 188.76250016 223.66389086 165.84765625 245.4609375 C165.20054687 246.10289062 164.5534375 246.74484375 163.88671875 247.40625 C149.47420082 261.14841826 130.96667608 270.33551448 111.84765625 275.4609375 C110.26597656 275.89212891 110.26597656 275.89212891 108.65234375 276.33203125 C91.15757597 280.91399424 71.55591343 281.24697891 53.84765625 277.4609375 C52.81608398 277.25090088 52.81608398 277.25090088 51.76367188 277.03662109 C37.49161538 274.04619672 22.28503504 268.93434117 10.5546875 260.02734375 C7.99850534 258.14593951 7.99850534 258.14593951 5.41015625 258.97265625 C4.56453125 259.46378906 3.71890625 259.95492188 2.84765625 260.4609375 C1.75453125 261.04488281 0.66140625 261.62882812 -0.46484375 262.23046875 C-1.05845703 262.55950195 -1.65207031 262.88853516 -2.26367188 263.22753906 C-21.07353011 273.64396004 -41.88067774 279.90390577 -63.46484375 279.7109375 C-64.56497803 279.70416992 -65.6651123 279.69740234 -66.79858398 279.69042969 C-74.76226468 279.58930358 -82.34125564 279.1098403 -90.15234375 277.4609375 C-91.41691406 277.20441406 -92.68148437 276.94789063 -93.984375 276.68359375 C-122.83461791 270.39792381 -149.34334182 252.81645785 -167.15234375 229.4609375 C-167.74660156 228.69394531 -168.34085938 227.92695313 -168.953125 227.13671875 C-178.46396425 214.25882376 -184.94700383 199.84593205 -189.15234375 184.4609375 C-189.46776123 183.32760986 -189.46776123 183.32760986 -189.78955078 182.17138672 C-197.56657593 153.06450002 -194.1621347 121.14325299 -180.15234375 94.4609375 C-179.63583252 93.45281006 -179.63583252 93.45281006 -179.10888672 92.42431641 C-174.36344653 83.24296766 -169.04150038 75.21587683 -162.15234375 67.4609375 C-161.50652344 66.68363281 -160.86070312 65.90632813 -160.1953125 65.10546875 C-155.11847485 59.09804986 -149.3875853 54.23424389 -143.15234375 49.4609375 C-142.3840625 48.86539063 -141.61578125 48.26984375 -140.82421875 47.65625 C-120.52249952 32.67164771 -94.97570628 23.10664598 -69.58984375 23.3984375 C-68.55730469 23.40746094 -67.52476562 23.41648438 -66.4609375 23.42578125 C-65.31818359 23.44318359 -65.31818359 23.44318359 -64.15234375 23.4609375 C-64.09046875 22.6565625 -64.02859375 21.8521875 -63.96484375 21.0234375 C-61.70931998 11.1338333 -54.8745628 2.62014573 -46.46484375 -2.8515625 C-30.9260906 -11.50516251 -14.3660038 -10.27260526 0 0 Z " fill="#030302" transform="translate(249.15234375,168.5390625)"/>
<path d="M0 0 C1.03833984 -0.03287109 2.07667969 -0.06574219 3.14648438 -0.09960938 C11.49258376 -0.15716868 18.21521005 1.65965503 24.45751953 7.4152832 C29.21161327 12.44716314 32.3125 17.36357201 32.3125 24.4375 C40.2325 24.4375 48.1525 24.4375 56.3125 24.4375 C56.6425 22.1275 56.9725 19.8175 57.3125 17.4375 C60.68213019 10.15023748 66.33462637 4.7226518 73.60253906 1.38623047 C78.30203172 -0.25901534 83.06477512 0.02706705 88 0 C89.03833984 -0.03287109 90.07667969 -0.06574219 91.14648438 -0.09960938 C99.49258376 -0.15716868 106.21521005 1.65965503 112.45751953 7.4152832 C117.21161327 12.44716314 120.3125 17.36357201 120.3125 24.4375 C128.2325 24.4375 136.1525 24.4375 144.3125 24.4375 C144.6425 22.1275 144.9725 19.8175 145.3125 17.4375 C148.68213019 10.15023748 154.33462637 4.7226518 161.60253906 1.38623047 C166.30203172 -0.25901534 171.06477512 0.02706705 176 0 C177.03833984 -0.03287109 178.07667969 -0.06574219 179.14648438 -0.09960938 C187.49258376 -0.15716868 194.21521005 1.65965503 200.45751953 7.4152832 C205.21161327 12.44716314 208.3125 17.36357201 208.3125 24.4375 C216.2325 24.4375 224.1525 24.4375 232.3125 24.4375 C232.6425 22.1275 232.9725 19.8175 233.3125 17.4375 C236.68213019 10.15023748 242.33462637 4.7226518 249.60253906 1.38623047 C254.30203172 -0.25901534 259.06477512 0.02706705 264 0 C265.03833984 -0.03287109 266.07667969 -0.06574219 267.14648438 -0.09960938 C275.49258376 -0.15716868 282.21521005 1.65965503 288.45751953 7.4152832 C293.21161327 12.44716314 296.3125 17.36357201 296.3125 24.4375 C304.2325 24.4375 312.1525 24.4375 320.3125 24.4375 C320.6425 22.1275 320.9725 19.8175 321.3125 17.4375 C324.68213019 10.15023748 330.33462637 4.7226518 337.60253906 1.38623047 C342.30203172 -0.25901534 347.06477512 0.02706705 352 0 C353.03833984 -0.03287109 354.07667969 -0.06574219 355.14648438 -0.09960938 C363.49258376 -0.15716868 370.21521005 1.65965503 376.45751953 7.4152832 C381.21161327 12.44716314 384.3125 17.36357201 384.3125 24.4375 C384.88170166 24.41655273 385.45090332 24.39560547 386.03735352 24.37402344 C388.64971816 24.29019006 391.26179884 24.23863182 393.875 24.1875 C394.77025391 24.15398438 395.66550781 24.12046875 396.58789062 24.0859375 C402.75649763 23.99555498 406.27141853 24.82921613 411.3125 28.4375 C414.88616967 32.29330148 416.43833128 35.24552798 416.43554783 40.49234295 C416.43753888 41.32039745 416.43952993 42.14845195 416.44158131 43.00159901 C416.43866847 43.91112429 416.43575563 44.82064956 416.43275452 45.75773621 C416.43403615 47.20715865 416.43403615 47.20715865 416.43534368 48.68586236 C416.43699658 51.93797306 416.43148018 55.19003269 416.42602539 58.44213867 C416.42574345 60.76767475 416.42590138 63.09321092 416.4264679 65.41874695 C416.42675561 71.74482158 416.42086306 78.07087738 416.41389394 84.39694762 C416.40828766 90.33445777 416.40727159 96.27196717 416.40624207 102.20947961 C416.4040527 113.97095546 416.39739572 125.73242439 416.38793945 137.49389648 C416.37876237 148.9200029 416.37168298 160.34610744 416.36743164 171.7722168 C416.36703756 172.82843098 416.36703756 172.82843098 416.36663551 173.90598281 C416.36533048 177.43841172 416.36406677 180.97084063 416.36282361 184.50326955 C416.35245457 213.81468417 416.33476511 243.12609201 416.3125 272.4375 C411.0325 272.4375 405.7525 272.4375 400.3125 272.4375 C400.3125 219.6375 400.3125 166.8375 400.3125 112.4375 C252.4725 112.4375 104.6325 112.4375 -47.6875 112.4375 C-47.6875 125.6375 -47.6875 138.8375 -47.6875 152.4375 C-52.9675 152.4375 -58.2475 152.4375 -63.6875 152.4375 C-63.78019473 137.4339339 -63.85152891 122.43041126 -63.89474869 107.42661953 C-63.91535206 100.45968805 -63.94342968 93.49293803 -63.98925781 86.52612305 C-64.0334663 79.80230783 -64.05664041 73.07872004 -64.06700897 66.35475349 C-64.07439775 63.78991797 -64.08882622 61.22509271 -64.11042023 58.66033745 C-64.13947128 55.06687024 -64.14345511 51.47418105 -64.14160156 47.88061523 C-64.15598267 46.8210965 -64.17036377 45.76157776 -64.18518066 44.66995239 C-64.14997162 38.35853698 -63.42488817 34.58000679 -59.6875 29.4375 C-55.58478463 25.63498331 -52.56720781 24.30450823 -47.01953125 24.33984375 C-46.12685547 24.34306641 -45.23417969 24.34628906 -44.31445312 24.34960938 C-42.92129883 24.36217773 -42.92129883 24.36217773 -41.5 24.375 C-40.55962891 24.37951172 -39.61925781 24.38402344 -38.65039062 24.38867188 C-36.32936288 24.40045374 -34.00846356 24.41690442 -31.6875 24.4375 C-31.57535156 23.37660156 -31.46320312 22.31570312 -31.34765625 21.22265625 C-29.98090716 13.38608901 -25.02362044 8.15729197 -18.71484375 3.62890625 C-12.55793047 0.01068168 -6.97745704 0.03826759 0 0 Z " fill="#000000" transform="translate(79.6875,15.5625)"/>
<path d="M0 0 C2.16022187 2.14669935 4.07609858 4.27415958 5.87109375 6.73046875 C5.35160156 7.73464844 4.83210938 8.73882812 4.296875 9.7734375 C-3.53221703 25.04985224 -8.43576948 39.98429037 -12.12890625 56.73046875 C-11.02482422 56.82134766 -11.02482422 56.82134766 -9.8984375 56.9140625 C-8.92261719 56.99785156 -7.94679688 57.08164062 -6.94140625 57.16796875 C-5.97847656 57.24917969 -5.01554687 57.33039063 -4.0234375 57.4140625 C-1.34241023 57.70713026 1.23739235 58.15750629 3.87109375 58.73046875 C3.95359375 57.71984375 4.03609375 56.70921875 4.12109375 55.66796875 C5.79068133 42.830194 10.43244223 31.35635022 15.87109375 19.73046875 C18.87109375 19.73046875 18.87109375 19.73046875 21.3515625 22.13671875 C22.26234767 23.16052106 23.16440567 24.19213909 24.05859375 25.23046875 C24.52201172 25.75511719 24.98542969 26.27976562 25.46289062 26.8203125 C26.60644875 28.11713099 27.73976549 29.42296742 28.87109375 30.73046875 C28.27361328 32.31021484 28.27361328 32.31021484 27.6640625 33.921875 C18.07577427 59.76554413 16.07157112 85.85931854 27.49609375 111.48046875 C28.08883257 112.74779098 28.68499791 114.01351825 29.28515625 115.27734375 C32.14513502 121.50448964 32.14513502 121.50448964 32.87109375 124.73046875 C31.89453125 126.7421875 31.89453125 126.7421875 30.24609375 128.41796875 C29.6840625 129.000625 29.12203125 129.58328125 28.54296875 130.18359375 C26.74071613 131.85109851 24.92821145 133.38543025 22.87109375 134.73046875 C19.52966981 133.36203023 18.22978656 132.19304445 16.6875 128.94140625 C16.13557983 127.78825928 16.13557983 127.78825928 15.57250977 126.61181641 C15.00874634 125.37117432 15.00874634 125.37117432 14.43359375 124.10546875 C14.04034912 123.25388184 13.64710449 122.40229492 13.24194336 121.52490234 C6.28307311 106.10254126 2.41712263 90.75438584 2.87109375 73.73046875 C-2.40890625 73.73046875 -7.68890625 73.73046875 -13.12890625 73.73046875 C-12.61661698 83.66888068 -11.46954352 93.04349869 -9.12890625 102.73046875 C-8.96938477 103.3941748 -8.80986328 104.05788086 -8.64550781 104.74169922 C-5.58309708 117.06481649 -1.18019819 130.96678994 6.70703125 141.0859375 C7.28324219 141.89998047 7.28324219 141.89998047 7.87109375 142.73046875 C6.87109375 145.73046875 6.87109375 145.73046875 4.3515625 147.01171875 C0.87240522 148.29937838 -2.61444653 149.5423199 -6.12890625 150.73046875 C-7.03898437 151.05660156 -7.9490625 151.38273438 -8.88671875 151.71875 C-27.8137901 157.54034192 -48.95177979 154.02712896 -66.25561523 145.13989258 C-85.75972915 134.48181479 -99.7336288 117.78077089 -106.12890625 96.375 C-112.0176151 74.91341659 -110.04358745 54.08424325 -99.38671875 34.5546875 C-88.71727235 16.01150704 -71.83658991 2.10314442 -51.05859375 -3.52734375 C-50.09179688 -3.77226562 -49.125 -4.0171875 -48.12890625 -4.26953125 C-47.40960938 -4.49382812 -46.6903125 -4.718125 -45.94921875 -4.94921875 C-32.79554136 -8.68547731 -11.401531 -8.27002436 0 0 Z " fill="#FDF1F7" transform="translate(213.12890625,246.26953125)"/>
<path d="M0 0 C1.39456452 0.00667256 2.78911118 0.01863093 4.18359375 0.03515625 C4.89451172 0.03966797 5.60542969 0.04417969 6.33789062 0.04882812 C8.09899388 0.06064761 9.86005411 0.07858362 11.62109375 0.09765625 C11.62496094 1.83789062 11.62496094 1.83789062 11.62890625 3.61328125 C11.82749383 14.50522574 12.92605575 23.43126831 20.29296875 32.0546875 C26.85621451 38.24160036 34.64809955 39.68527767 43.37109375 39.66015625 C44.68509155 39.65653076 44.68509155 39.65653076 46.02563477 39.65283203 C54.4146406 39.41599876 60.82924589 37.11484049 67.3125 31.6796875 C68.88085095 30.09779722 68.88085095 30.09779722 70.62109375 27.09765625 C71.18570313 26.23333984 71.18570313 26.23333984 71.76171875 25.3515625 C76.02993546 17.64172035 75.36730448 8.66304412 75.62109375 0.09765625 C83.54109375 0.09765625 91.46109375 0.09765625 99.62109375 0.09765625 C99.66234375 2.82015625 99.70359375 5.54265625 99.74609375 8.34765625 C100.15364368 18.23610463 102.57261351 26.66233428 109.99609375 33.66015625 C116.18851533 38.75699555 123.6600091 39.68236346 131.37109375 39.66015625 C132.68509155 39.65653076 132.68509155 39.65653076 134.02563477 39.65283203 C142.4146406 39.41599876 148.82924589 37.11484049 155.3125 31.6796875 C156.88085095 30.09779722 156.88085095 30.09779722 158.62109375 27.09765625 C159.18570313 26.23333984 159.18570313 26.23333984 159.76171875 25.3515625 C164.02993546 17.64172035 163.36730448 8.66304412 163.62109375 0.09765625 C171.54109375 0.09765625 179.46109375 0.09765625 187.62109375 0.09765625 C187.66234375 2.82015625 187.70359375 5.54265625 187.74609375 8.34765625 C188.15364368 18.23610463 190.57261351 26.66233428 197.99609375 33.66015625 C204.18851533 38.75699555 211.6600091 39.68236346 219.37109375 39.66015625 C220.68509155 39.65653076 220.68509155 39.65653076 222.02563477 39.65283203 C230.4146406 39.41599876 236.82924589 37.11484049 243.3125 31.6796875 C244.88085095 30.09779722 244.88085095 30.09779722 246.62109375 27.09765625 C247.18570313 26.23333984 247.18570313 26.23333984 247.76171875 25.3515625 C252.02993546 17.64172035 251.36730448 8.66304412 251.62109375 0.09765625 C259.54109375 0.09765625 267.46109375 0.09765625 275.62109375 0.09765625 C275.68296875 4.18140625 275.68296875 4.18140625 275.74609375 8.34765625 C276.15364368 18.23610463 278.57261351 26.66233428 285.99609375 33.66015625 C292.18851533 38.75699555 299.6600091 39.68236346 307.37109375 39.66015625 C308.68509155 39.65653076 308.68509155 39.65653076 310.02563477 39.65283203 C318.4146406 39.41599876 324.82924589 37.11484049 331.3125 31.6796875 C332.88085095 30.09779722 332.88085095 30.09779722 334.62109375 27.09765625 C335.18570313 26.23333984 335.18570313 26.23333984 335.76171875 25.3515625 C340.02993546 17.64172035 339.36730448 8.66304412 339.62109375 0.09765625 C347.54109375 0.09765625 355.46109375 0.09765625 363.62109375 0.09765625 C363.68296875 4.18140625 363.68296875 4.18140625 363.74609375 8.34765625 C364.15364368 18.23610463 366.57261351 26.66233428 373.99609375 33.66015625 C380.18851533 38.75699555 387.6600091 39.68236346 395.37109375 39.66015625 C396.68509155 39.65653076 396.68509155 39.65653076 398.02563477 39.65283203 C406.4146406 39.41599876 412.82924589 37.11484049 419.3125 31.6796875 C420.88085095 30.09779722 420.88085095 30.09779722 422.62109375 27.09765625 C423.18570313 26.23333984 423.18570313 26.23333984 423.76171875 25.3515625 C428.00375035 17.68901951 427.43706815 8.62724304 427.62109375 0.09765625 C430.10033176 0.0708053 432.57928215 0.05089078 435.05859375 0.03515625 C435.76564453 0.02677734 436.47269531 0.01839844 437.20117188 0.00976562 C439.00802934 0.00112037 440.81496978 0.04545614 442.62109375 0.09765625 C455.82252465 13.29908715 443.62109375 37.42801363 443.62109375 56.09765625 C295.78109375 56.09765625 147.94109375 56.09765625 -4.37890625 56.09765625 C-4.37890625 0.12655798 -4.37890625 0.12655798 0 0 Z " fill="#F689C7" transform="translate(36.37890625,55.90234375)"/>
<path d="M0 0 C20.36494871 -0.71443385 39.36278875 5.2346928 55.25 18.1953125 C56.04148437 18.82308594 56.83296875 19.45085937 57.6484375 20.09765625 C72.99022743 32.89993488 82.60749518 52.73269982 84.46875 72.52099609 C85.88352987 94.01238662 79.8672928 114.39440901 66.25 131.1953125 C65.70730469 131.90171875 65.16460937 132.608125 64.60546875 133.3359375 C52.74620147 147.99410727 33.72018745 157.28803465 15.25 160.1953125 C-1.62105264 161.89037292 -17.94026099 159.88179403 -32.75 151.1953125 C-31.44036209 147.64921601 -29.81542367 144.38875714 -27.98339844 141.08447266 C-11.36157669 111.06121013 -8.34146939 76.36900019 -17.35888672 43.34008789 C-19.59755769 35.87385654 -22.94500808 28.95770392 -26.44726562 22.01123047 C-27.08631836 20.74303467 -27.08631836 20.74303467 -27.73828125 19.44921875 C-28.12540283 18.69970947 -28.51252441 17.9502002 -28.91137695 17.17797852 C-29.75 15.1953125 -29.75 15.1953125 -29.75 12.1953125 C-24.61537993 5.25588047 -19.01584983 2.43607484 -10.77734375 0.8046875 C-7.20082491 0.28095834 -3.60756195 0.18789385 0 0 Z " fill="#FDF1F7" transform="translate(323.75,239.8046875)"/>
<path d="M0 0 C0.81332743 2.10384698 1.62563417 4.20808857 2.4375 6.3125 C2.88996094 7.48425781 3.34242188 8.65601563 3.80859375 9.86328125 C4.57984755 11.89382815 5.31312642 13.93937926 6 16 C5.36723145 16.03440186 4.73446289 16.06880371 4.08251953 16.10424805 C-26.54246442 17.89056697 -52.52677711 25.79863215 -73.67089844 49.42529297 C-90.67796703 69.57510789 -97.75587875 93.89195777 -96.27490234 119.98535156 C-93.83486496 146.74341691 -80.77065128 169.29443013 -60.71875 186.83984375 C-39.80727631 203.45485087 -14.94900531 209.58508531 11.29345703 206.75244141 C15.61691642 206.14001038 19.79538048 205.16404741 24 204 C25.52753906 203.58234375 25.52753906 203.58234375 27.0859375 203.15625 C52.01644095 195.5658605 71.69941597 178.7739068 84.04785156 156.07373047 C94.97329761 134.89558752 97.81537724 108.92445072 91 86 C89.69906365 82.38684281 88.33146766 78.8005826 86.80615234 75.27587891 C84.85474755 70.57787486 84.85474755 70.57787486 85.54296875 67.83984375 C87.42382077 65.46482685 89.45154509 63.3613562 91.625 61.25 C92.85089844 60.05117188 92.85089844 60.05117188 94.1015625 58.828125 C94.72804688 58.22484375 95.35453125 57.6215625 96 57 C111.3256122 74.50554842 112.07963394 103.05144187 111 125 C110.43747205 129.84822818 109.40102475 134.32991749 108 139 C107.80664062 139.67804688 107.61328125 140.35609375 107.4140625 141.0546875 C102.83507844 156.93980506 96.09499778 171.59338426 85 184 C84.31421875 184.81597656 83.6284375 185.63195312 82.921875 186.47265625 C64.92336648 207.41696382 37.6387378 221.68748464 10 224 C-9.82741882 225.27880517 -30.07563332 223.13596529 -48 214 C-48.5868457 213.71253906 -49.17369141 213.42507813 -49.77832031 213.12890625 C-58.32140679 208.933524 -65.82914062 204.32722887 -73 198 C-74.22783203 196.96939453 -74.22783203 196.96939453 -75.48046875 195.91796875 C-95.82826913 178.40939633 -110.059102 151.82538739 -113 125 C-114.94542045 93.6061948 -107.5698295 64.35674372 -87 40 C-85.98292969 38.78183594 -85.98292969 38.78183594 -84.9453125 37.5390625 C-69.04455783 19.14850995 -47.55390131 7.24298251 -24 2 C-23.03320312 1.77441406 -22.06640625 1.54882812 -21.0703125 1.31640625 C-14.03610358 -0.16179707 -7.16716405 -0.20510167 0 0 Z " fill="#F8BC67" transform="translate(185,208)"/>
<path d="M0 0 C5.28 0 10.56 0 16 0 C16.33 97.35 16.66 194.7 17 295 C85.31 295.33 153.62 295.66 224 296 C224 301.28 224 306.56 224 312 C196.47956176 312.09342507 168.95914728 312.16397034 141.43858242 312.20724869 C128.66041705 312.22787733 115.88235019 312.25600389 103.10424805 312.30175781 C91.96736669 312.3416161 80.83055666 312.36743061 69.69360596 312.37635398 C63.79619616 312.38157038 57.89899046 312.39383747 52.00164604 312.42292023 C46.45064127 312.45007318 40.89992466 312.45844512 35.34885979 312.45243073 C33.31189915 312.453531 31.27492886 312.46148544 29.23802567 312.4768219 C26.45503764 312.49674773 23.67313504 312.49192958 20.89012146 312.48101807 C20.08563031 312.49266943 19.28113916 312.5043208 18.45226949 312.51632524 C12.85365614 312.45706497 9.62472207 311.18516255 5 308 C1.0621113 303.75122535 -0.12543534 300.66849898 -0.12304783 294.94564533 C-0.12503888 293.89465351 -0.12702993 292.8436617 -0.12908131 291.76082164 C-0.12616847 290.60227568 -0.12325563 289.44372971 -0.12025452 288.25007629 C-0.12110894 287.02244731 -0.12196337 285.79481833 -0.12284368 284.52998847 C-0.12420902 281.1162731 -0.12107229 277.70261471 -0.11606562 274.28890622 C-0.11175614 270.60998797 -0.1132079 266.93107155 -0.1139679 263.25215149 C-0.11449281 256.87610772 -0.11134936 250.50007417 -0.10573006 244.12403297 C-0.09761072 234.90529342 -0.09499939 225.68655882 -0.09374207 216.46781608 C-0.09155223 201.51182575 -0.08489399 186.55584088 -0.07543945 171.59985352 C-0.06626357 157.06958036 -0.0591836 142.53930867 -0.05493164 128.0090332 C-0.05466892 127.1137227 -0.05440619 126.2184122 -0.05413551 125.29597107 C-0.05283049 120.80456161 -0.05156678 116.31315214 -0.05032361 111.82174265 C-0.03995312 74.54782455 -0.02226244 37.27391279 0 0 Z " fill="#000000" transform="translate(16,184)"/>
<path d="M0 0 C5.28 0 10.56 0 16 0 C16.09260454 23.34815648 16.16398291 46.6962687 16.20724869 70.04457188 C16.2278719 80.88565384 16.25598801 91.72661959 16.30175781 102.56762695 C16.34163281 112.01690163 16.36743456 121.46609213 16.37635398 130.91544861 C16.38156758 135.9186129 16.39381659 140.92153639 16.42292023 145.92462349 C16.45009971 150.63516736 16.45843984 155.34537156 16.45243073 160.0559864 C16.45352983 161.78333889 16.46146865 163.51070291 16.4768219 165.23798752 C16.49679006 167.60064691 16.49191516 169.96203203 16.48101807 172.32472229 C16.49266943 173.00470309 16.5043208 173.6846839 16.51632524 174.38527018 C16.45010907 179.71426569 14.90084048 182.68470036 12 187 C6.56799661 192.03453973 2.11933124 192.14391762 -5.01652527 192.12025452 C-5.95013848 192.12110894 -6.88375169 192.12196337 -7.84565622 192.12284368 C-10.9872113 192.12449633 -14.12871348 192.1189806 -17.27026367 192.11352539 C-19.51698302 192.11324345 -21.76370246 192.11340139 -24.01042175 192.1139679 C-30.12162748 192.11425559 -36.2328137 192.10836338 -42.34401488 192.10139394 C-48.72619386 192.09515574 -55.10837325 192.09455623 -61.49055481 192.09336853 C-72.20651655 192.09061048 -82.92246973 192.08435818 -93.63842773 192.07543945 C-104.67651331 192.06626217 -115.71459693 192.05918288 -126.75268555 192.05493164 C-127.43293237 192.05466892 -128.11317919 192.05440619 -128.81403955 192.05413551 C-132.22659588 192.05283048 -135.63915223 192.05156677 -139.05170858 192.05032361 C-167.36781066 192.03995481 -195.68390495 192.02226555 -224 192 C-224 186.72 -224 181.44 -224 176 C-150.41 175.67 -76.82 175.34 -1 175 C-0.67 117.25 -0.34 59.5 0 0 Z " fill="#000000" transform="translate(480,304)"/>
<path d="M0 0 C5.77445858 3.18846509 10.11376447 7.9461732 14.59375 12.703125 C17.20802034 15.40012541 18.08930026 16.06462862 21.6875 16.75 C27.48965878 15.89042092 30.9297191 11.49945382 34.84765625 7.3671875 C40.36436853 1.56144474 45.24126462 -1.87382825 53.4375 -2.3125 C60.25430113 -2.02886056 65.81513144 0.36573383 70.9140625 4.89453125 C76.50242313 10.99217597 78.67661174 17.24570073 78.40625 25.48046875 C76.70627476 39.17686019 63.85526659 48.56691713 54.60546875 57.68652344 C49.46542122 62.76076173 44.43123618 67.85988046 39.73388672 73.3515625 C36.69132857 76.80743924 33.40025655 80.01652789 30.125 83.25 C29.44115234 83.92933594 28.75730469 84.60867188 28.05273438 85.30859375 C26.39162841 86.95808359 24.72821487 88.6051668 23.0625 90.25 C19.62319417 88.76873643 17.39295662 86.82572554 14.76171875 84.1796875 C13.94896484 83.365 13.13621094 82.5503125 12.29882812 81.7109375 C11.45771484 80.85757813 10.61660156 80.00421875 9.75 79.125 C8.50573242 77.87976563 8.50573242 77.87976563 7.23632812 76.609375 C3.59165879 72.93881614 0.01439705 69.2559625 -3.34375 65.3203125 C-8.38175841 59.45915769 -14.04956579 54.16380038 -19.62084961 48.81347656 C-27.33715696 41.38737029 -33.89064745 34.46394317 -34.3125 23.1875 C-34.21700892 15.9588256 -31.89074301 10.46522425 -27 5.140625 C-19.17579685 -2.03156122 -10.05873772 -4.36419427 0 0 Z " fill="#EF5956" transform="translate(233.9375,177.75)"/>
<path d="M0 0 C26.13412437 -1.1120904 53.3608451 8.66745725 73 26 C73.83015625 26.69867188 74.6603125 27.39734375 75.515625 28.1171875 C93.79641332 43.87455412 105.94656874 65.52908702 111 89 C111.17732666 89.82081055 111.35465332 90.64162109 111.53735352 91.48730469 C112.9022437 98.28320649 113.3517831 104.826073 113.3125 111.75 C113.30686035 112.80203613 113.3012207 113.85407227 113.29541016 114.93798828 C113.16546546 123.31491799 112.30182562 130.90873417 110 139 C109.70996094 140.03833984 109.70996094 140.03833984 109.4140625 141.09765625 C104.88292215 156.95664746 98.06384355 171.63075131 87 184 C86.30261719 184.82757813 85.60523438 185.65515625 84.88671875 186.5078125 C69.29409917 204.62073116 47.97348455 216.11618607 25 222 C24.13246094 222.22558594 23.26492188 222.45117188 22.37109375 222.68359375 C0.09429229 227.38539318 -25.67381088 224.21021865 -46 214 C-46.96808594 213.52949219 -47.93617188 213.05898438 -48.93359375 212.57421875 C-51.30301493 211.4075828 -53.65681918 210.21824666 -56 209 C-56 205 -56 205 -54.171875 202.60546875 C-53.37265625 201.80753906 -52.5734375 201.00960937 -51.75 200.1875 C-50.56664062 198.97126953 -50.56664062 198.97126953 -49.359375 197.73046875 C-47 196 -47 196 -45.12109375 196.0625 C-44.42113281 196.371875 -43.72117187 196.68125 -43 197 C-41.98550781 197.41894531 -40.97101563 197.83789062 -39.92578125 198.26953125 C-38.73339844 198.77871094 -37.54101562 199.28789062 -36.3125 199.8125 C-15.23268934 208.33910717 7.20706445 210.33284309 29 203 C29.9885498 202.68651611 29.9885498 202.68651611 30.99707031 202.36669922 C55.0988062 194.67281653 74.23398593 178.02188853 85.89160156 155.54931641 C97.32587846 132.55348882 99.52928587 106.55840823 91.78125 82.046875 C86.4467165 66.19848185 77.83472911 53.68801759 66 42 C65.31164062 41.31292969 64.62328125 40.62585938 63.9140625 39.91796875 C44.70257667 21.9629303 19.32143478 16.75026473 -6 16 C-4.02 10.72 -2.04 5.44 0 0 Z " fill="#F8BC67" transform="translate(327,208)"/>
<path d="M0 0 C2.42475586 1.90766095 4.71644362 3.92615799 7 6 C7.59039062 6.46019531 8.18078125 6.92039062 8.7890625 7.39453125 C10.73714142 9.28766435 11.45085324 10.31230611 12 13 C10.90825436 17.09980429 9.3513776 20.86902153 7.7109375 24.7734375 C-0.44993729 44.32940999 0.8268018 69.01549072 8.75390625 88.4609375 C9.91707105 91.18523194 11.14347581 93.871248 12.4140625 96.546875 C15.27404127 102.77402089 15.27404127 102.77402089 16 106 C15.0234375 108.01171875 15.0234375 108.01171875 13.375 109.6875 C12.81296875 110.27015625 12.2509375 110.8528125 11.671875 111.453125 C9.86962238 113.12062976 8.0571177 114.6549615 6 116 C2.65857606 114.63156148 1.35869281 113.4625757 -0.18359375 110.2109375 C-0.55154053 109.44217285 -0.9194873 108.6734082 -1.29858398 107.88134766 C-1.67442627 107.05425293 -2.05026855 106.2271582 -2.4375 105.375 C-2.83074463 104.52341309 -3.22398926 103.67182617 -3.62915039 102.79443359 C-10.55363505 87.44827839 -14.61176419 71.95946275 -14 55 C-16.64 55 -19.28 55 -22 55 C-22.02701408 52.89590361 -22.04640223 50.79170822 -22.0625 48.6875 C-22.07410156 47.51574219 -22.08570313 46.34398437 -22.09765625 45.13671875 C-22 42 -22 42 -21 39 C-18.36 39.33 -15.72 39.66 -13 40 C-12.87625 38.4840625 -12.87625 38.4840625 -12.75 36.9375 C-11.37959435 26.40019172 -7.88156201 7.88156201 0 0 Z " fill="#F9BD67" transform="translate(230,265)"/>
<path d="M0 0 C1.31613281 -0.02578125 2.63226563 -0.0515625 3.98828125 -0.078125 C9.02861116 0.36895812 11.32044854 1.84531747 14.79833984 5.41894531 C17.16737127 8.96912474 17.18993027 11.10103589 17.18359375 15.34375 C17.18504898 16.01289429 17.18650421 16.68203857 17.18800354 17.37145996 C17.18635048 18.78007379 17.17485552 20.18870679 17.15405273 21.59716797 C17.12508164 23.7439505 17.13345651 25.88826189 17.14648438 28.03515625 C17.09088233 40.27938728 17.09088233 40.27938728 12.1875 46 C7.95895004 49.52379163 1.60531006 48.78144231 -3.6171875 48.671875 C-8.08977742 48.1612622 -10.14509403 47.03922928 -13.2109375 43.85546875 C-16.65084264 38.84198999 -15.65165341 32.00989274 -15.7175293 26.16357422 C-15.73907264 24.72810758 -15.77313366 23.29277103 -15.82006836 21.85791016 C-16.25543578 8.40645113 -16.25543578 8.40645113 -12.41015625 3.828125 C-8.50522385 0.17203924 -5.19444229 0.03961443 0 0 Z " fill="#F352A1" transform="translate(431.3125,31.75)"/>
<path d="M0 0 C1.31613281 -0.02578125 2.63226563 -0.0515625 3.98828125 -0.078125 C9.02861116 0.36895812 11.32044854 1.84531747 14.79833984 5.41894531 C17.16737127 8.96912474 17.18993027 11.10103589 17.18359375 15.34375 C17.18504898 16.01289429 17.18650421 16.68203857 17.18800354 17.37145996 C17.18635048 18.78007379 17.17485552 20.18870679 17.15405273 21.59716797 C17.12508164 23.7439505 17.13345651 25.88826189 17.14648438 28.03515625 C17.09088233 40.27938728 17.09088233 40.27938728 12.1875 46 C7.95895004 49.52379163 1.60531006 48.78144231 -3.6171875 48.671875 C-8.08977742 48.1612622 -10.14509403 47.03922928 -13.2109375 43.85546875 C-16.65084264 38.84198999 -15.65165341 32.00989274 -15.7175293 26.16357422 C-15.73907264 24.72810758 -15.77313366 23.29277103 -15.82006836 21.85791016 C-16.25543578 8.40645113 -16.25543578 8.40645113 -12.41015625 3.828125 C-8.50522385 0.17203924 -5.19444229 0.03961443 0 0 Z " fill="#F352A1" transform="translate(343.3125,31.75)"/>
<path d="M0 0 C1.31613281 -0.02578125 2.63226563 -0.0515625 3.98828125 -0.078125 C9.02861116 0.36895812 11.32044854 1.84531747 14.79833984 5.41894531 C17.16737127 8.96912474 17.18993027 11.10103589 17.18359375 15.34375 C17.18504898 16.01289429 17.18650421 16.68203857 17.18800354 17.37145996 C17.18635048 18.78007379 17.17485552 20.18870679 17.15405273 21.59716797 C17.12508164 23.7439505 17.13345651 25.88826189 17.14648438 28.03515625 C17.09088233 40.27938728 17.09088233 40.27938728 12.1875 46 C7.95895004 49.52379163 1.60531006 48.78144231 -3.6171875 48.671875 C-8.08977742 48.1612622 -10.14509403 47.03922928 -13.2109375 43.85546875 C-16.65084264 38.84198999 -15.65165341 32.00989274 -15.7175293 26.16357422 C-15.73907264 24.72810758 -15.77313366 23.29277103 -15.82006836 21.85791016 C-16.25543578 8.40645113 -16.25543578 8.40645113 -12.41015625 3.828125 C-8.50522385 0.17203924 -5.19444229 0.03961443 0 0 Z " fill="#F352A1" transform="translate(255.3125,31.75)"/>
<path d="M0 0 C1.31613281 -0.02578125 2.63226563 -0.0515625 3.98828125 -0.078125 C9.02861116 0.36895812 11.32044854 1.84531747 14.79833984 5.41894531 C17.16737127 8.96912474 17.18993027 11.10103589 17.18359375 15.34375 C17.18504898 16.01289429 17.18650421 16.68203857 17.18800354 17.37145996 C17.18635048 18.78007379 17.17485552 20.18870679 17.15405273 21.59716797 C17.12508164 23.7439505 17.13345651 25.88826189 17.14648438 28.03515625 C17.09088233 40.27938728 17.09088233 40.27938728 12.1875 46 C7.95895004 49.52379163 1.60531006 48.78144231 -3.6171875 48.671875 C-8.08977742 48.1612622 -10.14509403 47.03922928 -13.2109375 43.85546875 C-16.65084264 38.84198999 -15.65165341 32.00989274 -15.7175293 26.16357422 C-15.73907264 24.72810758 -15.77313366 23.29277103 -15.82006836 21.85791016 C-16.25543578 8.40645113 -16.25543578 8.40645113 -12.41015625 3.828125 C-8.50522385 0.17203924 -5.19444229 0.03961443 0 0 Z " fill="#F352A1" transform="translate(167.3125,31.75)"/>
<path d="M0 0 C1.31613281 -0.02578125 2.63226563 -0.0515625 3.98828125 -0.078125 C9.02861116 0.36895812 11.32044854 1.84531747 14.79833984 5.41894531 C17.16737127 8.96912474 17.18993027 11.10103589 17.18359375 15.34375 C17.18504898 16.01289429 17.18650421 16.68203857 17.18800354 17.37145996 C17.18635048 18.78007379 17.17485552 20.18870679 17.15405273 21.59716797 C17.12508164 23.7439505 17.13345651 25.88826189 17.14648438 28.03515625 C17.09088233 40.27938728 17.09088233 40.27938728 12.1875 46 C7.95895004 49.52379163 1.60531006 48.78144231 -3.6171875 48.671875 C-8.08977742 48.1612622 -10.14509403 47.03922928 -13.2109375 43.85546875 C-16.65084264 38.84198999 -15.65165341 32.00989274 -15.7175293 26.16357422 C-15.73907264 24.72810758 -15.77313366 23.29277103 -15.82006836 21.85791016 C-16.25543578 8.40645113 -16.25543578 8.40645113 -12.41015625 3.828125 C-8.50522385 0.17203924 -5.19444229 0.03961443 0 0 Z " fill="#F352A1" transform="translate(79.3125,31.75)"/>
<path d="M0 0 C1.32 0 2.64 0 4 0 C5.37580937 4.32111002 6.70056787 8.65533378 8 13 C8.35191406 14.10601562 8.35191406 14.10601562 8.7109375 15.234375 C13.27334631 31.76484171 9.31735077 50.57540243 3 66 C2.34 66 1.68 66 1 66 C0.01517124 63.12682985 -0.9629993 60.25167255 -1.9375 57.375 C-2.21529297 56.56675781 -2.49308594 55.75851562 -2.77929688 54.92578125 C-8.75541342 37.21343584 -7.33999916 17.15972778 0 0 Z " fill="#F8ECF2" transform="translate(254,288)"/>
<path d="M0 0 C4.5 5.625 4.5 5.625 5 9 C0.73958774 12.76354036 -3.51848911 16.49881962 -8 20 C-8.99 17.03 -9.98 14.06 -11 11 C-7.37 7.37 -3.74 3.74 0 0 Z " fill="#EE8052" transform="translate(281,265)"/>
<path d="M0 0 C0.63164062 0.26296875 1.26328125 0.5259375 1.9140625 0.796875 C2.8215625 1.1475 3.7290625 1.498125 4.6640625 1.859375 C5.7778125 2.3234375 5.7778125 2.3234375 6.9140625 2.796875 C-0.13618061 11.16316349 -0.13618061 11.16316349 -3.0859375 13.796875 C-3.7459375 13.796875 -4.4059375 13.796875 -5.0859375 13.796875 C-5.4159375 14.456875 -5.7459375 15.116875 -6.0859375 15.796875 C-8.0659375 14.476875 -10.0459375 13.156875 -12.0859375 11.796875 C-10.61967894 8.44866602 -8.74935303 6.10421141 -6.2109375 3.484375 C-5.19386719 2.40736328 -5.19386719 2.40736328 -4.15625 1.30859375 C-2.0859375 -0.203125 -2.0859375 -0.203125 0 0 Z " fill="#F08152" transform="translate(282.0859375,404.203125)"/>
</svg>
